<svg width="198" height="133" viewBox="0 0 198 133" fill="none" xmlns="http://www.w3.org/2000/svg">
<path d="M8.9375 66V22.25H15.9375V66H8.9375ZM19.125 46.25V39.4375H23.3125C26.3542 39.4375 28 37.9583 28.25 35C28.25 34.75 28.25 34.5 28.25 34.25C27.9583 30.9583 26.3125 29.2292 23.3125 29.0625H19.125V22.25H23.875C31.4583 22.375 35.2708 26.3333 35.3125 34.125C35.3125 40.1667 33.3958 43.9375 29.5625 45.4375C27.9792 45.9792 26.0833 46.25 23.875 46.25C23.7917 46.25 22.2083 46.25 19.125 46.25ZM38.75 53.8125V33.25C38.75 31.0417 39.6875 28.7917 41.5625 26.5C44.0625 23.5 47.2292 21.9792 51.0625 21.9375V28.875C48.8958 28.9167 47.2708 30.0833 46.1875 32.375C45.8542 33.125 45.6875 33.75 45.6875 34.25V53.8125C45.6875 56.0625 46.8542 57.7292 49.1875 58.8125C49.8958 59.1458 50.5 59.3125 51 59.3125V66.3125C48.625 66.3125 46.25 65.4583 43.875 63.75C40.5 61.25 38.7917 57.9375 38.75 53.8125ZM54.4375 66.3125V59.3125C55.5208 59.3125 56.6458 58.8125 57.8125 57.8125C59.0625 56.6875 59.7083 55.3542 59.75 53.8125V34.25C59.75 33 59.2083 31.7917 58.125 30.625C57.0833 29.5 55.8542 28.9167 54.4375 28.875V21.9375C58.6458 21.9375 62.0208 23.75 64.5625 27.375C66.0208 29.4583 66.75 31.4167 66.75 33.25V53.8125C66.75 58.4375 64.6875 61.9792 60.5625 64.4375C58.3958 65.6875 56.3542 66.3125 54.4375 66.3125ZM71.75 66V22.25H78.75V66H71.75ZM81.9375 47.5625V41.3125H85.4375C89.0625 41.3125 91.0625 39.5833 91.4375 36.125C91.4792 35.75 91.5 35.3958 91.5 35.0625C91.5 31.5625 89.9167 29.5 86.75 28.875C86.1667 28.7917 85.5625 28.75 84.9375 28.75H81.9375V22.25H85.75C91.2917 22.375 95.0208 24.4375 96.9375 28.4375C97.7292 30.1042 98.125 32.0208 98.125 34.1875C98.0833 38.8125 96.6667 42.1667 93.875 44.25C96.0417 45.5 97.4167 47.7292 98 50.9375C98.0833 51.4792 98.1458 51.9792 98.1875 52.4375L99.25 66H92.75L91.8125 54.875C91.4792 51.375 90.5417 49.1667 89 48.25C88.0833 47.7917 86.9375 47.5625 85.5625 47.5625H81.9375ZM101.75 29.0625V22.25H128.812V29.0625H118.812V66H111.812V29.0625H101.75ZM132.438 66V22.25H155.188V29.125H139.438V40.75H149.312V47.75H139.438V59.0625H155.188V66H132.438ZM160.25 66V33.375H160.75L167.25 43.8125V66H160.25ZM160.25 26.75V22.25H166.062L188.062 57.5625V66H184.688L160.25 26.75ZM181.062 40.5V22.25H188.062V50.9375H187.562L181.062 40.5Z" fill="white"/>
<path d="M3.06144 95.6H4.88744V111H3.06144V95.6ZM18.3298 99.12C18.3298 99.4867 18.2711 99.8607 18.1538 100.242C18.0364 100.623 17.8604 100.983 17.6258 101.32C17.3911 101.643 17.0904 101.929 16.7238 102.178C16.3571 102.427 15.9244 102.618 15.4258 102.75V102.838C15.8658 102.911 16.2838 103.036 16.6798 103.212C17.0904 103.388 17.4498 103.63 17.7578 103.938C18.0658 104.246 18.3151 104.62 18.5058 105.06C18.6964 105.5 18.7918 106.021 18.7918 106.622C18.7918 107.414 18.6231 108.103 18.2858 108.69C17.9631 109.262 17.5304 109.731 16.9878 110.098C16.4598 110.465 15.8511 110.736 15.1618 110.912C14.4724 111.088 13.7684 111.176 13.0498 111.176C12.8004 111.176 12.5071 111.176 12.1698 111.176C11.8324 111.176 11.4804 111.161 11.1138 111.132C10.7471 111.117 10.3804 111.088 10.0138 111.044C9.64711 111.015 9.32445 110.963 9.04578 110.89V95.732C9.58845 95.644 10.2191 95.5707 10.9378 95.512C11.6564 95.4533 12.4411 95.424 13.2918 95.424C13.8638 95.424 14.4431 95.4753 15.0298 95.578C15.6311 95.666 16.1738 95.8493 16.6578 96.128C17.1418 96.392 17.5378 96.766 17.8458 97.25C18.1684 97.734 18.3298 98.3573 18.3298 99.12ZM13.2258 109.592C13.6951 109.592 14.1498 109.541 14.5898 109.438C15.0298 109.321 15.4184 109.145 15.7558 108.91C16.0931 108.661 16.3571 108.36 16.5478 108.008C16.7531 107.656 16.8558 107.238 16.8558 106.754C16.8558 106.153 16.7311 105.669 16.4818 105.302C16.2471 104.935 15.9318 104.649 15.5358 104.444C15.1544 104.239 14.7218 104.099 14.2378 104.026C13.7538 103.953 13.2698 103.916 12.7858 103.916H10.8718V109.438C10.9744 109.467 11.1211 109.489 11.3118 109.504C11.5024 109.519 11.7078 109.533 11.9278 109.548C12.1478 109.563 12.3751 109.577 12.6098 109.592C12.8444 109.592 13.0498 109.592 13.2258 109.592ZM12.0158 102.376C12.2651 102.376 12.5658 102.369 12.9178 102.354C13.2698 102.339 13.5631 102.317 13.7978 102.288C14.1498 102.171 14.4798 102.031 14.7878 101.87C15.0958 101.694 15.3671 101.496 15.6018 101.276C15.8511 101.041 16.0418 100.777 16.1738 100.484C16.3204 100.176 16.3938 99.846 16.3938 99.494C16.3938 99.01 16.2984 98.614 16.1078 98.306C15.9318 97.9833 15.6898 97.7267 15.3818 97.536C15.0738 97.3453 14.7218 97.2133 14.3258 97.14C13.9298 97.052 13.5264 97.008 13.1158 97.008C12.6318 97.008 12.1844 97.0227 11.7738 97.052C11.3778 97.0667 11.0771 97.096 10.8718 97.14V102.376H12.0158ZM29.2194 106.732H23.5434L22.0034 111H20.1994L26.0294 95.358H26.8654L32.7174 111H30.8034L29.2194 106.732ZM24.1374 105.148H28.6694L26.9534 100.462L26.4034 98.13H26.3814L25.8314 100.506L24.1374 105.148ZM43.9806 103.938H36.5886V111H34.7626V95.6H36.5886V102.31H43.9806V95.6H45.8066V111H43.9806V103.938ZM48.9058 103.3C48.9058 100.733 49.4485 98.768 50.5338 97.404C51.6192 96.0253 53.1665 95.336 55.1758 95.336C56.2612 95.336 57.1998 95.5267 57.9918 95.908C58.7838 96.2893 59.4365 96.832 59.9498 97.536C60.4778 98.2253 60.8665 99.0613 61.1158 100.044C61.3652 101.012 61.4898 102.097 61.4898 103.3C61.4898 105.867 60.9398 107.839 59.8398 109.218C58.7545 110.582 57.1998 111.264 55.1758 111.264C54.1052 111.264 53.1738 111.073 52.3818 110.692C51.6045 110.311 50.9518 109.775 50.4238 109.086C49.9105 108.382 49.5292 107.546 49.2798 106.578C49.0305 105.595 48.9058 104.503 48.9058 103.3ZM50.8418 103.3C50.8418 104.151 50.9225 104.957 51.0838 105.72C51.2598 106.483 51.5238 107.157 51.8758 107.744C52.2278 108.316 52.6752 108.778 53.2178 109.13C53.7752 109.467 54.4278 109.636 55.1758 109.636C56.5398 109.636 57.6105 109.123 58.3878 108.096C59.1652 107.055 59.5538 105.456 59.5538 103.3C59.5538 102.464 59.4658 101.665 59.2898 100.902C59.1285 100.125 58.8645 99.45 58.4978 98.878C58.1458 98.2913 57.6912 97.8293 57.1338 97.492C56.5912 97.14 55.9385 96.964 55.1758 96.964C53.8265 96.964 52.7632 97.4847 51.9858 98.526C51.2232 99.5527 50.8418 101.144 50.8418 103.3ZM64.0109 103.85H69.3349V105.478H64.0109V103.85ZM78.3186 109.284C78.0693 109.328 77.776 109.357 77.4386 109.372C77.116 109.387 76.808 109.394 76.5146 109.394C75.8253 109.394 75.1726 109.277 74.5566 109.042C73.9553 108.807 73.4273 108.441 72.9726 107.942C72.5326 107.443 72.1806 106.813 71.9166 106.05C71.6673 105.273 71.5426 104.356 71.5426 103.3C71.5426 102.303 71.6673 101.415 71.9166 100.638C72.1806 99.846 72.5473 99.1787 73.0166 98.636C73.5006 98.0933 74.0726 97.6827 74.7326 97.404C75.3926 97.1107 76.126 96.964 76.9326 96.964C77.1233 96.964 77.358 96.9713 77.6366 96.986C77.93 97.0007 78.1573 97.0227 78.3186 97.052V95.16H80.1226V97.118C80.3866 97.0447 80.6946 97.0007 81.0466 96.986C81.4133 96.9713 81.714 96.964 81.9486 96.964C82.6526 96.964 83.3053 97.096 83.9066 97.36C84.508 97.6093 85.0286 97.9907 85.4686 98.504C85.9233 99.0027 86.2753 99.6407 86.5246 100.418C86.774 101.181 86.8986 102.068 86.8986 103.08C86.8986 104.121 86.752 105.038 86.4586 105.83C86.18 106.622 85.7986 107.282 85.3146 107.81C84.8306 108.338 84.266 108.734 83.6206 108.998C82.9753 109.262 82.286 109.394 81.5526 109.394C81.3913 109.394 81.1493 109.387 80.8266 109.372C80.5186 109.343 80.284 109.299 80.1226 109.24V111.44H78.3186V109.284ZM81.6846 98.504C81.4793 98.504 81.2153 98.5113 80.8926 98.526C80.57 98.5407 80.306 98.5847 80.1006 98.658V107.788C80.2473 107.817 80.438 107.839 80.6726 107.854C80.922 107.854 81.164 107.854 81.3986 107.854C81.8973 107.854 82.3593 107.759 82.7846 107.568C83.2246 107.377 83.606 107.084 83.9286 106.688C84.266 106.292 84.53 105.793 84.7206 105.192C84.9113 104.591 85.0066 103.887 85.0066 103.08C85.0066 102.405 84.926 101.789 84.7646 101.232C84.618 100.66 84.398 100.169 84.1046 99.758C83.826 99.3473 83.4813 99.0393 83.0706 98.834C82.66 98.614 82.198 98.504 81.6846 98.504ZM76.8446 107.854C76.918 107.854 77.0133 107.854 77.1306 107.854C77.2626 107.854 77.402 107.854 77.5486 107.854C77.6953 107.839 77.8346 107.825 77.9666 107.81C78.1133 107.781 78.238 107.751 78.3406 107.722V98.592C78.1646 98.5627 77.9446 98.5407 77.6806 98.526C77.4313 98.5113 77.204 98.504 76.9986 98.504C76.5 98.504 76.0306 98.6067 75.5906 98.812C75.1653 99.0027 74.7913 99.3033 74.4686 99.714C74.146 100.11 73.8893 100.609 73.6986 101.21C73.5226 101.811 73.4346 102.508 73.4346 103.3C73.4346 104.004 73.5153 104.642 73.6766 105.214C73.838 105.771 74.0653 106.248 74.3586 106.644C74.6666 107.04 75.026 107.341 75.4366 107.546C75.862 107.751 76.3313 107.854 76.8446 107.854ZM89.6766 95.754C90.234 95.622 90.8353 95.534 91.4806 95.49C92.126 95.446 92.764 95.424 93.3946 95.424C94.0693 95.424 94.7513 95.49 95.4406 95.622C96.1446 95.754 96.7826 95.996 97.3546 96.348C97.9266 96.7 98.3886 97.184 98.7406 97.8C99.1073 98.416 99.2906 99.2007 99.2906 100.154C99.2906 101.093 99.122 101.885 98.7846 102.53C98.4473 103.175 98 103.703 97.4426 104.114C96.8853 104.51 96.2473 104.796 95.5286 104.972C94.81 105.148 94.0693 105.236 93.3066 105.236C93.2333 105.236 93.1086 105.236 92.9326 105.236C92.7713 105.236 92.5953 105.236 92.4046 105.236C92.2286 105.221 92.0526 105.207 91.8766 105.192C91.7006 105.177 91.576 105.163 91.5026 105.148V111H89.6766V95.754ZM93.4386 97.008C93.0573 97.008 92.6906 97.0153 92.3386 97.03C91.9866 97.0447 91.708 97.0813 91.5026 97.14V103.52C91.576 103.549 91.6933 103.571 91.8546 103.586C92.016 103.586 92.1846 103.593 92.3606 103.608C92.5366 103.608 92.7053 103.608 92.8666 103.608C93.028 103.608 93.1453 103.608 93.2186 103.608C93.7173 103.608 94.2086 103.564 94.6926 103.476C95.1913 103.373 95.6386 103.197 96.0346 102.948C96.4306 102.699 96.746 102.347 96.9806 101.892C97.23 101.437 97.3546 100.858 97.3546 100.154C97.3546 99.5527 97.2373 99.054 97.0026 98.658C96.7826 98.2473 96.482 97.9247 96.1006 97.69C95.734 97.4407 95.316 97.2647 94.8466 97.162C94.3773 97.0593 93.908 97.008 93.4386 97.008ZM107.895 106.732H102.219L100.679 111H98.8752L104.705 95.358H105.541L111.393 111H109.479L107.895 106.732ZM102.813 105.148H107.345L105.629 100.462L105.079 98.13H105.057L104.507 100.506L102.813 105.148ZM122.656 103.938H115.264V111H113.438V95.6H115.264V102.31H122.656V95.6H124.482V111H122.656V103.938ZM131.08 103.872H130.046V111H128.22V95.6H130.046V102.772L131.036 102.464L136.206 95.6H138.318L133.17 102.222L132.246 102.948L133.368 103.828L139 111H136.69L131.08 103.872ZM142.065 95.6H143.891V111H142.065V95.6ZM157.334 99.12C157.334 99.4867 157.275 99.8607 157.158 100.242C157.04 100.623 156.864 100.983 156.63 101.32C156.395 101.643 156.094 101.929 155.728 102.178C155.361 102.427 154.928 102.618 154.43 102.75V102.838C154.87 102.911 155.288 103.036 155.684 103.212C156.094 103.388 156.454 103.63 156.762 103.938C157.07 104.246 157.319 104.62 157.51 105.06C157.7 105.5 157.796 106.021 157.796 106.622C157.796 107.414 157.627 108.103 157.29 108.69C156.967 109.262 156.534 109.731 155.992 110.098C155.464 110.465 154.855 110.736 154.166 110.912C153.476 111.088 152.772 111.176 152.054 111.176C151.804 111.176 151.511 111.176 151.174 111.176C150.836 111.176 150.484 111.161 150.118 111.132C149.751 111.117 149.384 111.088 149.018 111.044C148.651 111.015 148.328 110.963 148.05 110.89V95.732C148.592 95.644 149.223 95.5707 149.942 95.512C150.66 95.4533 151.445 95.424 152.296 95.424C152.868 95.424 153.447 95.4753 154.034 95.578C154.635 95.666 155.178 95.8493 155.662 96.128C156.146 96.392 156.542 96.766 156.85 97.25C157.172 97.734 157.334 98.3573 157.334 99.12ZM152.23 109.592C152.699 109.592 153.154 109.541 153.594 109.438C154.034 109.321 154.422 109.145 154.76 108.91C155.097 108.661 155.361 108.36 155.552 108.008C155.757 107.656 155.86 107.238 155.86 106.754C155.86 106.153 155.735 105.669 155.486 105.302C155.251 104.935 154.936 104.649 154.54 104.444C154.158 104.239 153.726 104.099 153.242 104.026C152.758 103.953 152.274 103.916 151.79 103.916H149.876V109.438C149.978 109.467 150.125 109.489 150.316 109.504C150.506 109.519 150.712 109.533 150.932 109.548C151.152 109.563 151.379 109.577 151.614 109.592C151.848 109.592 152.054 109.592 152.23 109.592ZM151.02 102.376C151.269 102.376 151.57 102.369 151.922 102.354C152.274 102.339 152.567 102.317 152.802 102.288C153.154 102.171 153.484 102.031 153.792 101.87C154.1 101.694 154.371 101.496 154.606 101.276C154.855 101.041 155.046 100.777 155.178 100.484C155.324 100.176 155.398 99.846 155.398 99.494C155.398 99.01 155.302 98.614 155.112 98.306C154.936 97.9833 154.694 97.7267 154.386 97.536C154.078 97.3453 153.726 97.2133 153.33 97.14C152.934 97.052 152.53 97.008 152.12 97.008C151.636 97.008 151.188 97.0227 150.778 97.052C150.382 97.0667 150.081 97.096 149.876 97.14V102.376H151.02ZM170.753 110.362C170.313 110.699 169.756 110.934 169.081 111.066C168.407 111.198 167.688 111.264 166.925 111.264C166.001 111.264 165.136 111.11 164.329 110.802C163.523 110.479 162.819 109.995 162.217 109.35C161.616 108.705 161.139 107.883 160.787 106.886C160.435 105.874 160.259 104.679 160.259 103.3C160.259 101.863 160.45 100.645 160.831 99.648C161.227 98.636 161.741 97.8147 162.371 97.184C163.017 96.5387 163.735 96.0693 164.527 95.776C165.319 95.4827 166.126 95.336 166.947 95.336C167.827 95.336 168.546 95.3873 169.103 95.49C169.661 95.578 170.137 95.7027 170.533 95.864L170.093 97.47C169.389 97.1327 168.385 96.964 167.079 96.964C166.478 96.964 165.884 97.074 165.297 97.294C164.711 97.514 164.183 97.8733 163.713 98.372C163.259 98.8707 162.892 99.5233 162.613 100.33C162.335 101.137 162.195 102.127 162.195 103.3C162.195 104.356 162.327 105.28 162.591 106.072C162.855 106.864 163.215 107.524 163.669 108.052C164.139 108.58 164.681 108.976 165.297 109.24C165.928 109.504 166.61 109.636 167.343 109.636C168.003 109.636 168.575 109.57 169.059 109.438C169.558 109.306 169.976 109.137 170.313 108.932L170.753 110.362ZM173.466 95.6H175.292V101.584C175.365 101.569 175.49 101.555 175.666 101.54C175.842 101.511 176.032 101.489 176.238 101.474C176.443 101.459 176.656 101.445 176.876 101.43C177.096 101.415 177.294 101.408 177.47 101.408C178.174 101.408 178.856 101.481 179.516 101.628C180.19 101.76 180.784 102.002 181.298 102.354C181.826 102.706 182.251 103.183 182.574 103.784C182.896 104.371 183.058 105.119 183.058 106.028C183.058 106.908 182.904 107.671 182.596 108.316C182.288 108.961 181.862 109.497 181.32 109.922C180.777 110.347 180.139 110.663 179.406 110.868C178.687 111.073 177.902 111.176 177.052 111.176C176.846 111.176 176.597 111.169 176.304 111.154C176.01 111.154 175.695 111.139 175.358 111.11C175.035 111.095 174.705 111.066 174.368 111.022C174.045 110.978 173.744 110.919 173.466 110.846V95.6ZM177.294 109.592C177.822 109.592 178.313 109.526 178.768 109.394C179.237 109.247 179.648 109.035 180 108.756C180.352 108.463 180.623 108.103 180.814 107.678C181.019 107.238 181.122 106.732 181.122 106.16C181.122 105.544 181.012 105.031 180.792 104.62C180.572 104.209 180.278 103.887 179.912 103.652C179.56 103.403 179.149 103.234 178.68 103.146C178.21 103.043 177.726 102.992 177.228 102.992C177.096 102.992 176.934 102.999 176.744 103.014C176.553 103.029 176.362 103.043 176.172 103.058C175.981 103.073 175.805 103.095 175.644 103.124C175.482 103.153 175.365 103.175 175.292 103.19V109.46C175.497 109.504 175.79 109.541 176.172 109.57C176.553 109.585 176.927 109.592 177.294 109.592ZM188.529 103.872H187.495V111H185.669V95.6H187.495V102.772L188.485 102.464L193.655 95.6H195.767L190.619 102.222L189.695 102.948L190.817 103.828L196.449 111H194.139L188.529 103.872Z" fill="white"/>
<line x1="9" y1="81" x2="188" y2="81" stroke="white" stroke-width="2"/>
</svg>
